solid Exported from Blender-3.6.4
facet normal -1.000000 0.000000 0.000000
outer loop
vertex 0.393910 2.529319 0.000000
vertex 0.393910 2.529319 1.422393
vertex 0.393910 3.893912 1.422393
endloop
endfacet
facet normal -1.000000 0.000000 0.000000
outer loop
vertex 0.393910 2.529319 0.000000
vertex 0.393910 3.893912 1.422393
vertex 0.393910 3.893912 0.000000
endloop
endfacet
facet normal 0.000000 1.000000 0.000000
outer loop
vertex 0.393910 3.893912 0.000000
vertex 0.393910 3.893912 1.422393
vertex 1.681795 3.893912 1.422393
endloop
endfacet
facet normal 0.000000 1.000000 0.000000
outer loop
vertex 0.393910 3.893912 0.000000
vertex 1.681795 3.893912 1.422393
vertex 1.681795 3.893912 0.000000
endloop
endfacet
facet normal 1.000000 0.000000 0.000000
outer loop
vertex 1.681795 3.893912 0.000000
vertex 1.681795 3.893912 1.422393
vertex 1.681795 2.529319 1.422393
endloop
endfacet
facet normal 1.000000 0.000000 0.000000
outer loop
vertex 1.681795 3.893912 0.000000
vertex 1.681795 2.529319 1.422393
vertex 1.681795 2.529319 0.000000
endloop
endfacet
facet normal 0.000000 -1.000000 0.000000
outer loop
vertex 1.681795 2.529319 0.000000
vertex 1.681795 2.529319 1.422393
vertex 0.393910 2.529319 1.422393
endloop
endfacet
facet normal 0.000000 -1.000000 0.000000
outer loop
vertex 1.681795 2.529319 0.000000
vertex 0.393910 2.529319 1.422393
vertex 0.393910 2.529319 0.000000
endloop
endfacet
facet normal 0.000000 0.000000 -1.000000
outer loop
vertex 0.393910 3.893912 0.000000
vertex 1.681795 3.893912 0.000000
vertex 1.681795 2.529319 0.000000
endloop
endfacet
facet normal 0.000000 0.000000 -1.000000
outer loop
vertex 0.393910 3.893912 0.000000
vertex 1.681795 2.529319 0.000000
vertex 0.393910 2.529319 0.000000
endloop
endfacet
facet normal 0.000000 0.000000 1.000000
outer loop
vertex 1.681795 3.893912 1.422393
vertex 0.393910 3.893912 1.422393
vertex 0.393910 2.529319 1.422393
endloop
endfacet
facet normal 0.000000 0.000000 1.000000
outer loop
vertex 1.681795 3.893912 1.422393
vertex 0.393910 2.529319 1.422393
vertex 1.681795 2.529319 1.422393
endloop
endfacet
endsolid Exported from Blender-3.6.4
